<?xml version="1.0" encoding="utf-8"?>
<!-- Generator: Adobe Illustrator 15.1.0, SVG Export Plug-In . SVG Version: 6.00 Build 0)  -->
<!DOCTYPE svg PUBLIC "-//W3C//DTD SVG 1.1//EN" "http://www.w3.org/Graphics/SVG/1.1/DTD/svg11.dtd">
<svg version="1.1" id="Layer_1" xmlns="http://www.w3.org/2000/svg" xmlns:xlink="http://www.w3.org/1999/xlink" x="0px" y="0px"
	 width="300px" height="120px" viewBox="0 0 300 120" enable-background="new 0 0 300 120" xml:space="preserve">
<g>
	<path d="M111.917,99.512H91.733L75.239,41.455L60.589,99.512H40.623L14.795,21.488h17.362l18.014,60.009l15.3-60.009h19.316
		l17.58,60.009l16.711-60.009h16.712L111.917,99.512z"/>
	<path d="M111.917,99.512l7.463-78.023h24.09l19.75,59.792l19.859-59.792h23.982v78.023h-16.169l1.302-60.661l-19.858,60.661
		h-17.472l-20.4-61.203"/>
	<path d="M280.778,94.52c-4.414,3.328-37.596,4.992-75.431,4.992V85.513h53.076c3.979,0,6.872-0.47,8.681-1.411
		c2.676-1.373,4.016-3.182,4.016-5.426c0-2.387-0.109-4.014-0.325-4.883c-0.072-0.795-0.29-1.445-0.65-1.953
		c-0.218-0.578-0.508-1.048-0.869-1.41c-1.882-1.881-7.2-2.822-15.951-2.822h-3.69l-5.317,0.108c-8.176,0-14.145-0.722-17.905-2.171
		c-8.176-3.182-12.262-9.476-12.262-18.881c0-9.403,2.531-16.096,7.597-20.075c4.484-3.4,11.067-5.101,19.749-5.101h37.466v13.999
		H244.1c-3.906,0-7.018,0.76-9.333,2.279c-2.314,1.665-3.472,4.087-3.472,7.27c0,3.185,0.978,5.534,2.931,7.054
		c2.023,1.375,11.719,2.062,29.082,2.062l6.185,0.109l2.605,0.325l2.278,0.434c1.736,0.363,3.399,1.014,4.992,1.953l1.845,1.411
		l2.387,1.953c1.737,1.52,2.966,3.835,3.69,6.945c0.721,2.968,1.084,7.235,1.084,12.805
		C288.374,85.947,285.842,90.759,280.778,94.52z"/>
	<rect x="282.995" y="21.488" fill="#E30613" width="5.494" height="13.999"/>
	<rect x="282.995" y="30.253" fill="#E30613" width="5.494" height="5.234"/>
	<polygon fill="#E30613" points="11.781,21.488 37.608,99.512 32.288,99.512 6.917,21.488 	"/>
</g>
</svg>
